<?xml version="1.0" encoding="iso-8859-1"?>
<!-- Generator: Adobe Illustrator 19.0.0, SVG Export Plug-In . SVG Version: 6.00 Build 0)  -->
<svg xmlns="http://www.w3.org/2000/svg" xmlns:xlink="http://www.w3.org/1999/xlink" version="1.1" id="Layer_1" x="0px" y="0px" viewBox="0 0 512 512" style="enable-background:new 0 0 512 512;" xml:space="preserve">
<path style="fill:#FFBB33;" d="M307.143,365.826c12.593-13.672,20.289-31.923,20.289-51.976c0-42.394-34.369-76.758-76.764-76.758  c-42.393,0-76.758,34.364-76.758,76.758c0,20.053,7.697,38.303,20.29,51.976H307.143z"/>
<circle style="fill:#FFA233;" cx="250.664" cy="314.174" r="51.653"/>
<g>
	<path style="fill:#85C8EB;" d="M476.433,47.226H369.615c-12.579,0-22.774,10.195-22.774,22.773c0,4.223,1.168,8.164,3.171,11.555   h-47.436c-12.581,0-22.776,10.195-22.776,22.773c0,12.576,10.195,22.771,22.776,22.771h64.545h28.862h13.407   c12.581,0,22.771-10.195,22.771-22.771c0-4.226-1.167-8.164-3.171-11.555h47.442c12.578,0,22.771-10.196,22.771-22.773   C499.203,57.421,489.011,47.226,476.433,47.226z"/>
	<path style="fill:#85C8EB;" d="M302.401,26.029c0-9.912-8.036-17.945-17.947-17.945H257.81h-23.811h-26.645   c-9.91,0-17.945,8.032-17.945,17.945c0,9.911,8.035,17.944,17.945,17.944h26.644h23.811h26.644   C294.365,43.974,302.401,35.941,302.401,26.029z"/>
	<circle style="fill:#85C8EB;" cx="143.651" cy="26.031" r="17.945"/>
	<rect x="8.084" y="365.827" style="fill:#85C8EB;" width="495.832" height="138.089"/>
</g>
<g style="opacity:0.1;">
	<rect x="16.167" y="366.732" style="fill:#231F20;" width="17.246" height="137.184"/>
</g>
<g>
	<path style="fill:#231F20;" d="M427.216,321.934h-63.922c-4.466,0-8.084-3.618-8.084-8.084s3.618-8.084,8.084-8.084h63.922   c4.466,0,8.084,3.618,8.084,8.084S431.681,321.934,427.216,321.934z"/>
	<path style="fill:#231F20;" d="M136.645,321.934H74.121c-4.466,0-8.084-3.618-8.084-8.084s3.618-8.084,8.084-8.084h62.523   c4.466,0,8.084,3.618,8.084,8.084S141.109,321.934,136.645,321.934z"/>
	<path style="fill:#231F20;" d="M330.407,240.797c-2.113,0-4.221-0.822-5.808-2.459c-3.106-3.207-3.026-8.325,0.181-11.431   l45.103-43.701c3.207-3.107,8.325-3.026,11.431,0.181c3.106,3.207,3.026,8.325-0.181,11.431L336.03,238.52   C334.462,240.04,332.434,240.797,330.407,240.797z"/>
	<path style="fill:#231F20;" d="M250.669,209.308L250.669,209.308c-4.466,0-8.084-3.62-8.084-8.084l0.001-63.919   c0-4.465,3.62-8.084,8.084-8.084l0,0c4.466,0,8.084,3.62,8.084,8.084l-0.001,63.919   C258.753,205.687,255.132,209.308,250.669,209.308z"/>
	<path style="fill:#231F20;" d="M170.93,239.394c-1.982,0-3.969-0.724-5.529-2.187l-45.101-42.297   c-3.256-3.055-3.42-8.17-0.366-11.428c3.054-3.257,8.168-3.423,11.428-0.366l45.101,42.297c3.256,3.055,3.42,8.17,0.366,11.428   C175.238,238.537,173.087,239.394,170.93,239.394z"/>
	<path style="fill:#231F20;" d="M409.392,135.181h-13.407c-4.466,0-8.084-3.618-8.084-8.084c0-4.466,3.618-8.084,8.084-8.084h13.407   c8.098,0,14.686-6.588,14.686-14.686c0-2.64-0.689-5.143-2.046-7.441c-1.478-2.499-1.5-5.598-0.064-8.12   c1.439-2.521,4.119-4.078,7.022-4.078h47.442c8.098,0,14.686-6.589,14.686-14.688s-6.588-14.688-14.686-14.688H369.617   c-8.1,0-14.69,6.589-14.69,14.688c0,2.602,0.708,5.176,2.047,7.442c1.477,2.5,1.5,5.599,0.061,8.12   c-1.439,2.521-4.118,4.077-7.021,4.077h-47.436c-8.101,0-14.692,6.589-14.692,14.688c0,8.098,6.59,14.686,14.692,14.686h64.545   c4.466,0,8.084,3.618,8.084,8.084c0,4.466-3.618,8.084-8.084,8.084h-64.545c-17.016,0-30.86-13.841-30.86-30.855   c0-17.015,13.844-30.857,30.86-30.857h36.378c-0.132-1.149-0.198-2.309-0.198-3.471c0-17.015,13.843-30.857,30.858-30.857h106.817   c17.013,0,30.855,13.842,30.855,30.857s-13.841,30.857-30.855,30.857h-36.384c0.132,1.149,0.198,2.309,0.198,3.471   C440.247,121.34,426.405,135.181,409.392,135.181z"/>
	<path style="fill:#231F20;" d="M284.453,52.058h-77.099c-14.352,0-26.029-11.676-26.029-26.028S193.002,0,207.355,0h77.099   c14.353,0,26.031,11.677,26.031,26.029S298.807,52.058,284.453,52.058z M207.355,16.168c-5.438,0-9.861,4.423-9.861,9.861   c0,5.437,4.424,9.86,9.861,9.86h77.099c5.439,0,9.863-4.424,9.863-9.86c0-5.438-4.424-9.861-9.863-9.861   C284.453,16.168,207.355,16.168,207.355,16.168z"/>
	<path style="fill:#231F20;" d="M143.649,52.058c-14.352,0-26.029-11.676-26.029-26.028S129.296,0,143.649,0   c14.353,0,26.03,11.677,26.03,26.029S158.001,52.058,143.649,52.058z M143.649,16.168c-5.438,0-9.861,4.423-9.861,9.861   c0,5.437,4.424,9.86,9.861,9.86c5.438,0,9.862-4.424,9.862-9.86C153.509,20.592,149.086,16.168,143.649,16.168z"/>
	<path style="fill:#231F20;" d="M473.387,408.433h-81.201c-4.466,0-8.084-3.62-8.084-8.084c0-4.466,3.618-8.084,8.084-8.084h81.201   c4.466,0,8.084,3.618,8.084,8.084C481.471,404.814,477.851,408.433,473.387,408.433z"/>
	<path style="fill:#231F20;" d="M368.472,408.433H41.51c-4.466,0-8.084-3.62-8.084-8.084c0-4.466,3.618-8.084,8.084-8.084h326.962   c4.466,0,8.084,3.618,8.084,8.084C376.556,404.814,372.936,408.433,368.472,408.433z"/>
	<path style="fill:#231F20;" d="M473.387,442.954H41.51c-4.466,0-8.084-3.618-8.084-8.084s3.618-8.084,8.084-8.084h431.877   c4.466,0,8.084,3.618,8.084,8.084S477.851,442.954,473.387,442.954z"/>
	<path style="fill:#231F20;" d="M473.387,477.477H147.143c-4.466,0-8.084-3.618-8.084-8.084c0-4.465,3.618-8.084,8.084-8.084   h326.243c4.466,0,8.084,3.62,8.084,8.084C481.471,473.858,477.851,477.477,473.387,477.477z"/>
	<path style="fill:#231F20;" d="M125.586,477.477H41.51c-4.466,0-8.084-3.618-8.084-8.084c0-4.465,3.618-8.084,8.084-8.084h84.076   c4.466,0,8.084,3.62,8.084,8.084C133.67,473.858,130.05,477.477,125.586,477.477z"/>
	<path style="fill:#231F20;" d="M503.916,357.741H323.264c7.966-13.145,12.252-28.261,12.252-43.892   c0-46.782-38.064-84.842-84.849-84.842c-46.782,0-84.842,38.06-84.842,84.842c0,15.631,4.288,30.747,12.252,43.892H8.084   c-4.466,0-8.084,3.618-8.084,8.084v138.09C0,508.382,3.618,512,8.084,512h495.832c4.466,0,8.084-3.618,8.084-8.084v-138.09   C512,361.36,508.382,357.741,503.916,357.741z M181.995,313.85c0-37.866,30.807-68.674,68.674-68.674   c37.871,0,68.68,30.807,68.68,68.674c0,16.117-5.61,31.572-15.869,43.892h-12.005c11.638-10.907,18.929-26.398,18.929-43.567   c0-32.94-26.798-59.738-59.737-59.738s-59.737,26.798-59.737,59.738c0,17.17,7.292,32.66,18.93,43.567h-11.998   C187.606,345.421,181.995,329.967,181.995,313.85z M207.1,314.174c0-24.024,19.544-43.57,43.568-43.57s43.568,19.545,43.568,43.57   c0,24.023-19.544,43.567-43.568,43.567S207.1,338.197,207.1,314.174z M495.832,495.832H16.168V373.91h178.033h112.942h188.689   V495.832z"/>
</g>
<g>
</g>
<g>
</g>
<g>
</g>
<g>
</g>
<g>
</g>
<g>
</g>
<g>
</g>
<g>
</g>
<g>
</g>
<g>
</g>
<g>
</g>
<g>
</g>
<g>
</g>
<g>
</g>
<g>
</g>
</svg>
